<svg width="54" height="54" viewBox="0 0 54 54" fill="none" xmlns="http://www.w3.org/2000/svg">
<path d="M15.75 45C15.75 41.2721 20.7868 38.25 27 38.25C33.2132 38.25 38.25 41.2721 38.25 45" stroke="#8AF8FF" stroke-width="4" stroke-linecap="round" stroke-linejoin="round"/>
<path d="M40.5 32.0615C44.4733 33.1031 47.25 35.4819 47.25 38.2499" stroke="#8AF8FF" stroke-width="4" stroke-linecap="round" stroke-linejoin="round"/>
<path d="M13.5 32.0615C9.52671 33.1031 6.75 35.4819 6.75 38.2499" stroke="#8AF8FF" stroke-width="4" stroke-linecap="round" stroke-linejoin="round"/>
<path d="M27 31.5C30.7279 31.5 33.75 28.4779 33.75 24.75C33.75 21.0221 30.7279 18 27 18C23.2721 18 20.25 21.0221 20.25 24.75C20.25 28.4779 23.2721 31.5 27 31.5Z" stroke="#8AF8FF" stroke-width="4" stroke-linecap="round" stroke-linejoin="round"/>
<path d="M40.5 23.0312C41.8809 21.7953 42.75 19.9991 42.75 18C42.75 14.2721 39.7279 11.25 36 11.25C34.2712 11.25 32.6942 11.8999 31.5 12.9688" stroke="#8AF8FF" stroke-width="4" stroke-linecap="round" stroke-linejoin="round"/>
<path d="M13.5 23.0312C12.1191 21.7953 11.25 19.9991 11.25 18C11.25 14.2721 14.2721 11.25 18 11.25C19.7288 11.25 21.3058 11.8999 22.5 12.9688" stroke="#8AF8FF" stroke-width="4" stroke-linecap="round" stroke-linejoin="round"/>
</svg>
