<svg width="40" height="40" viewBox="0 0 40 40" fill="none" xmlns="http://www.w3.org/2000/svg">
<path fill-rule="evenodd" clip-rule="evenodd" d="M8.41964 8.41964C14.8485 1.99075 25.2436 1.90042 31.7833 8.21662C38.0995 14.7563 38.0092 25.1514 31.5803 31.5803C25.1514 38.0092 14.7563 38.0995 8.21662 31.7833C1.90042 25.2436 1.99075 14.8485 8.41964 8.41964ZM27.5929 25.9166C27.5929 25.4722 27.4155 25.0462 27.1 24.7333L22.35 20L27.1 15.2666C27.5227 14.8439 27.6878 14.2277 27.5331 13.6502C27.3783 13.0726 26.9273 12.6216 26.3497 12.4668C25.7722 12.3121 25.1561 12.4772 24.7333 12.9L20 17.65L15.2666 12.9C14.8439 12.4772 14.2277 12.3121 13.6502 12.4668C13.0726 12.6216 12.6216 13.0726 12.4668 13.6502C12.3121 14.2277 12.4772 14.8439 12.9 15.2666L17.65 20L12.9 24.7333C12.5844 25.0462 12.407 25.4722 12.407 25.9166C12.407 26.361 12.5844 26.787 12.9 27.1C13.2145 27.4119 13.6403 27.5858 14.0833 27.5833C14.5263 27.5858 14.9521 27.4119 15.2666 27.1L20 22.35L24.7333 27.1C25.0478 27.4119 25.4736 27.5858 25.9166 27.5833C26.3596 27.5858 26.7854 27.4119 27.1 27.1C27.4155 26.787 27.5929 26.361 27.5929 25.9166Z" fill="white"/>
</svg>
