<svg width="36" height="36" viewBox="0 0 36 36" fill="none" xmlns="http://www.w3.org/2000/svg">
<g clip-path="url(#clip0_74_144)">
<path d="M25.7142 6.42865H3.85714C1.7269 6.42865 0 8.15555 0 10.2858V32.1429C0 34.2731 1.7269 36 3.85714 36H25.7142C27.8445 36 29.5714 34.2731 29.5714 32.1429V10.2858C29.5714 8.15555 27.8445 6.42865 25.7142 6.42865ZM27 32.143C27 32.8531 26.4243 33.4287 25.7142 33.4287H3.85714C3.14703 33.4287 2.5714 32.8531 2.5714 32.143V10.2858C2.5714 9.57568 3.14703 9.00005 3.85714 9.00005H25.7142C26.4243 9.00005 27 9.57568 27 10.2858V32.143Z" fill="#001AFF"/>
<path d="M32.1428 0H8.99996C6.86972 0 5.14282 1.7269 5.14282 3.85714C5.14282 4.56725 5.71846 5.14288 6.42856 5.14288C7.13867 5.14288 7.71422 4.56725 7.71422 3.85714C7.71422 3.14703 8.28986 2.5714 8.99996 2.5714H32.1428C32.8529 2.5714 33.4285 3.14703 33.4285 3.85714V27C33.4285 27.7101 32.8529 28.2857 32.1428 28.2857C31.4327 28.2857 30.8571 28.8613 30.8571 29.5715C30.8571 30.2816 31.4327 30.8572 32.1428 30.8572C34.273 30.8572 35.9999 29.1303 35.9999 27.0001V3.85714C35.9999 1.7269 34.273 0 32.1428 0Z" fill="#ACFAFF"/>
</g>
<defs>
<clipPath id="clip0_74_144">
<rect width="36" height="36" fill="white"/>
</clipPath>
</defs>
</svg>
