<svg width="38" height="45" viewBox="0 0 38 45" fill="none" xmlns="http://www.w3.org/2000/svg">
<path d="M11.0301 15.1269C11.2218 15.2453 11.3956 15.3906 11.5463 15.5576C11.7181 15.8304 11.8208 16.1411 11.8448 16.4621C12.1086 18.2711 12.8467 19.9788 13.9845 21.4131C15.1381 22.85 16.8217 23.7661 18.6588 23.9567C18.7676 23.9661 18.8764 23.969 18.9852 23.9723C19.094 23.9694 19.2029 23.9661 19.3117 23.9567H19.312C21.149 23.7661 22.8327 22.85 23.9862 21.4131C25.1242 19.9789 25.8623 18.2711 26.126 16.4621C26.1503 16.1411 26.2526 15.8304 26.4245 15.5576C26.5755 15.3903 26.7493 15.2453 26.9407 15.1269C27.7982 14.4874 28.3576 13.5276 28.4895 12.4684C28.5737 11.7681 28.253 10.8512 27.5442 10.8542C27.8428 9.13161 28.1072 7.34687 27.6933 5.6463C27.1421 3.54866 25.6982 1.79565 23.7406 0.847066C22.2629 0.139963 20.6134 -0.13283 18.9855 0.0603571C17.3574 -0.132839 15.7078 0.139967 14.2301 0.847066C12.2725 1.79556 10.829 3.54857 10.2773 5.6463C9.86382 7.34721 10.1282 9.13161 10.4265 10.8542C9.71732 10.8513 9.39701 11.7681 9.48117 12.4684C9.61305 13.5276 10.1724 14.4874 11.03 15.1269H11.0301Z" fill="#8AF8FF"/>
<path d="M37.5106 34.5641L37.0471 31.749L37.0468 31.7486C36.8496 30.5085 36.1245 29.4137 35.0574 28.7455C32.5256 27.1837 28.6322 26.3922 28.6322 26.3922C27.3215 26.1268 26.1599 25.1424 25.3977 24.8544L21.2826 27.6171L21.2403 27.7058C21.1029 26.9638 20.6345 26.4162 20.0768 26.4162L17.9237 26.4159C17.3649 26.4159 16.8975 26.9644 16.7601 27.7055L16.7178 27.6168L12.6027 24.8541C11.8393 25.1421 10.679 26.1265 9.36694 26.3919C9.36694 26.3919 5.47402 27.1834 2.94311 28.7452V28.7455C1.876 29.4131 1.15092 30.5076 0.953745 31.7476L0.490191 34.5641H0.489866C0.163719 36.5485 0 38.5562 0 40.5671V42.0231V42.0227C0 42.8123 0.315104 43.5696 0.875432 44.1278C1.43579 44.6864 2.19594 44.9999 2.98854 44.9999H16.1678L17.157 31.7322H17.1574C17.1915 31.2753 17.3974 30.8484 17.7343 30.5368C18.0715 30.2255 18.5139 30.0523 18.9735 30.0523H19.0245C19.4845 30.052 19.9276 30.2248 20.2648 30.5365C20.602 30.8481 20.8083 31.2753 20.8424 31.7322L21.8318 45H35.0128C35.8051 45 36.5649 44.6864 37.1249 44.1284C37.6853 43.5702 38 42.8132 38 42.024V40.5671C38 38.5561 37.8363 36.5484 37.5101 34.564L37.5106 34.5641Z" fill="#8AF8FF"/>
</svg>
