<svg width="45" height="45" viewBox="0 0 45 45" fill="none" xmlns="http://www.w3.org/2000/svg">
<path d="M18.6197 24.966C18.2292 25.3566 18.2292 25.9897 18.6197 26.3803C19.0102 26.7708 19.6434 26.7708 20.0339 26.3803L18.6197 24.966ZM29.1204 17.2937C29.511 16.9032 29.511 16.27 29.1204 15.8795C28.7299 15.489 28.0967 15.489 27.7062 15.8795L29.1204 17.2937ZM20.0339 26.3803L29.1204 17.2937L27.7062 15.8795L18.6197 24.966L20.0339 26.3803Z" fill="#8AF8FF"/>
<path d="M25.744 38.9391L23.9552 39.8336L25.744 38.9391ZM29.2132 38.652L27.3016 38.0638L29.2132 38.652ZM18.624 25.5377L17.7296 27.3265L18.624 25.5377ZM19.4626 26.3762L21.2514 25.4818L19.4626 26.3762ZM6.34823 15.7871L6.9364 17.6986L6.34823 15.7871ZM6.06112 19.2562L5.16669 21.0451L6.06112 19.2562ZM35.9903 6.66644L36.5785 8.57799L35.9903 6.66644ZM38.3338 9.00993L40.2454 9.5981V9.5981L38.3338 9.00993ZM35.4022 4.75488L5.76006 13.8755L6.9364 17.6986L36.5785 8.57799L35.4022 4.75488ZM5.16669 21.0451L17.7296 27.3265L19.5185 23.7488L6.95554 17.4674L5.16669 21.0451ZM17.6737 27.2706L23.9552 39.8336L27.5329 38.0447L21.2514 25.4818L17.6737 27.2706ZM31.1247 39.2402L40.2454 9.5981L36.4223 8.42176L27.3016 38.0638L31.1247 39.2402ZM23.9552 39.8336C25.5186 42.9604 30.0966 42.5815 31.1247 39.2402L27.3016 38.0638C27.2998 38.0698 27.3019 38.0607 27.3134 38.0443C27.3245 38.0284 27.3388 38.0136 27.3543 38.0018C27.3834 37.9796 27.4042 37.9766 27.4108 37.976C27.4173 37.9755 27.4384 37.9751 27.4708 37.9922C27.4879 38.0013 27.5045 38.0135 27.5181 38.0274C27.5321 38.0417 27.5357 38.0502 27.5329 38.0447L23.9552 39.8336ZM17.7296 27.3265C17.7054 27.3144 17.6858 27.2948 17.6737 27.2706L21.2514 25.4818C20.8765 24.7319 20.2684 24.1238 19.5185 23.7488L17.7296 27.3265ZM5.76006 13.8755C2.41877 14.9036 2.0399 19.4817 5.16669 21.0451L6.95554 17.4674C6.95002 17.4646 6.95859 17.4682 6.97287 17.4822C6.98672 17.4958 6.99898 17.5123 7.00807 17.5295C7.0252 17.5619 7.02476 17.5829 7.02422 17.5895C7.02367 17.596 7.02065 17.6169 6.99843 17.646C6.98664 17.6614 6.97183 17.6757 6.95593 17.6869C6.93954 17.6983 6.93049 17.7005 6.9364 17.6986L5.76006 13.8755ZM36.5785 8.57799C36.5788 8.57791 36.5697 8.58054 36.5534 8.58079C36.5376 8.58104 36.5212 8.57895 36.5061 8.57487C36.4771 8.56708 36.4612 8.55478 36.4533 8.54691C36.4455 8.53905 36.4332 8.52318 36.4254 8.49421C36.4213 8.47906 36.4192 8.46268 36.4195 8.44685C36.4197 8.43056 36.4223 8.42148 36.4223 8.42176L40.2454 9.5981C41.1602 6.6249 38.3753 3.84005 35.4022 4.75488L36.5785 8.57799Z" fill="#8AF8FF"/>
</svg>
