<svg width="45" height="45" viewBox="0 0 45 45" fill="none" xmlns="http://www.w3.org/2000/svg">
<path d="M17.8179 7.98228L15.961 8.72507L17.8179 7.98228ZM19.7947 12.9241L21.6516 12.1814V12.1814L19.7947 12.9241ZM19.1937 16.7176L20.7301 17.9979V17.9979L19.1937 16.7176ZM18.1298 17.9942L19.6663 19.2746L18.1298 17.9942ZM18.359 23.0465L16.9448 24.4607L18.359 23.0465ZM21.9535 26.641L23.3677 25.2268H23.3677L21.9535 26.641ZM27.0058 26.8702L25.7254 25.3337V25.3337L27.0058 26.8702ZM28.2824 25.8063L29.5628 27.3427L29.5628 27.3427L28.2824 25.8063ZM32.0758 25.2053L31.3331 27.0623H31.3331L32.0758 25.2053ZM37.0177 27.1821L37.7605 25.3251L37.0177 27.1821ZM9.17763 7.625H14.3361V3.625H9.17763V7.625ZM15.961 8.72507L17.9377 13.6669L21.6516 12.1814L19.6749 7.2395L15.961 8.72507ZM17.6573 15.4372L16.5934 16.7138L19.6663 19.2746L20.7301 17.9979L17.6573 15.4372ZM16.9448 24.4607L20.5393 28.0552L23.3677 25.2268L19.7732 21.6323L16.9448 24.4607ZM28.2862 28.4066L29.5628 27.3427L27.0021 24.2699L25.7254 25.3337L28.2862 28.4066ZM31.3331 27.0623L36.2749 29.039L37.7605 25.3251L32.8186 23.3484L31.3331 27.0623ZM37.375 30.6639V35.8224H41.375V30.6639H37.375ZM35.8224 37.375C20.2494 37.375 7.625 24.7506 7.625 9.17763H3.625C3.625 26.9597 18.0403 41.375 35.8224 41.375V37.375ZM37.375 35.8224C37.375 36.6799 36.6799 37.375 35.8224 37.375V41.375C38.889 41.375 41.375 38.889 41.375 35.8224H37.375ZM36.2749 29.039C36.9393 29.3048 37.375 29.9483 37.375 30.6639H41.375C41.375 28.3127 39.9435 26.1983 37.7605 25.3251L36.2749 29.039ZM29.5628 27.3427C30.0566 26.9312 30.7363 26.8236 31.3331 27.0623L32.8186 23.3484C30.8577 22.564 28.6246 22.9178 27.0021 24.2699L29.5628 27.3427ZM20.5393 28.0552C22.6421 30.1581 26.0016 30.3104 28.2862 28.4066L25.7254 25.3337C25.0301 25.9131 24.0077 25.8668 23.3677 25.2268L20.5393 28.0552ZM16.5934 16.7138C14.6895 18.9984 14.8419 22.3579 16.9448 24.4607L19.7732 21.6323C19.1332 20.9923 19.0869 19.9699 19.6663 19.2746L16.5934 16.7138ZM17.9377 13.6669C18.1764 14.2637 18.0688 14.9434 17.6573 15.4372L20.7301 17.9979C22.0822 16.3754 22.436 14.1423 21.6516 12.1814L17.9377 13.6669ZM14.3361 7.625C15.0517 7.625 15.6952 8.06066 15.961 8.72507L19.6749 7.2395C18.8017 5.05647 16.6873 3.625 14.3361 3.625V7.625ZM9.17763 3.625C6.111 3.625 3.625 6.111 3.625 9.17763H7.625C7.625 8.32014 8.32014 7.625 9.17763 7.625V3.625Z" fill="#8AF8FF"/>
</svg>
