<svg width="45" height="45" viewBox="0 0 45 45" fill="none" xmlns="http://www.w3.org/2000/svg">
<path d="M22.5 30C26.6421 30 30 26.6421 30 22.5C30 18.3579 26.6421 15 22.5 15C18.3579 15 15 18.3579 15 22.5C15 26.6421 18.3579 30 22.5 30Z" stroke="#00FFE0" stroke-width="2" stroke-linecap="round" stroke-linejoin="round"/>
<path d="M35.815 14.6741L36.6809 14.1739V14.1739L35.815 14.6741ZM35.9383 14.8876L35.0724 15.3878L35.0724 15.3878L35.9383 14.8876ZM37.3624 16.2889L37.8486 15.415L37.8486 15.415L37.3624 16.2889ZM40.2708 17.9069L39.7847 18.7807H39.7847L40.2708 17.9069ZM41.2343 19.5411L40.2343 19.5434V19.5434L41.2343 19.5411ZM41.2477 25.4508L40.2477 25.4531V25.4531L41.2477 25.4508ZM40.2816 27.0951L39.7969 26.2204H39.7968L40.2816 27.0951ZM37.3662 28.7107L37.8509 29.5854L37.3662 28.7107ZM35.9367 30.115L35.0707 29.6148L35.0707 29.6148L35.9367 30.115ZM35.815 30.3256L36.6809 30.8258L36.6809 30.8258L35.815 30.3256ZM35.3127 32.2644L34.3128 32.2812V32.2812L35.3127 32.2644ZM35.3689 35.6036L34.369 35.6204L35.3689 35.6036ZM34.4353 37.2568L33.9334 36.3919H33.9334L34.4353 37.2568ZM29.3204 40.2255L29.8223 41.0904H29.8223L29.3204 40.2255ZM27.4141 40.2114L27.9288 39.354H27.9288L27.4141 40.2114ZM24.5527 38.4936L24.038 39.3509L24.5527 38.4936ZM20.4491 38.4913L20.9629 39.3493V39.3493L20.4491 38.4913ZM17.6009 40.1968L17.0871 39.3388L17.6009 40.1968ZM15.7015 40.2127L16.2008 39.3463L15.7015 40.2127ZM10.5703 37.2559L11.0696 36.3894L10.5703 37.2559ZM9.63172 35.5996L10.6316 35.6165V35.6165L9.63172 35.5996ZM9.68784 32.275L8.68799 32.2581L9.68784 32.275ZM9.19293 30.3488L10.0608 29.852L9.19293 30.3488ZM9.06258 30.1211L8.19469 30.6179L8.19469 30.6179L9.06258 30.1211ZM7.63106 28.7069L7.14492 29.5808H7.14492L7.63106 28.7069ZM4.72965 27.0929L4.2435 27.9667H4.2435L4.72965 27.0929ZM3.76617 25.4586L2.76618 25.4609L3.76617 25.4586ZM3.75275 19.5489L4.75275 19.5466L3.75275 19.5489ZM4.71891 17.9046L5.20362 18.7793H5.20362L4.71891 17.9046ZM7.63432 16.289L7.1496 15.4143H7.1496L7.63432 16.289ZM9.06381 14.8847L8.1979 14.3845L8.1979 14.3845L9.06381 14.8847ZM9.18548 14.6741L10.0514 15.1743L10.0514 15.1743L9.18548 14.6741ZM9.68777 12.7353L10.6876 12.7185L9.68777 12.7353ZM9.63159 9.39609L8.63173 9.41291L9.63159 9.39609ZM10.5651 7.74289L11.0671 8.60777L10.5651 7.74289ZM15.6801 4.77421L16.1821 5.6391L16.1821 5.6391L15.6801 4.77421ZM17.5864 4.78832L17.0717 5.64568V5.64568L17.5864 4.78832ZM20.4478 6.50614L19.933 7.3635L20.4478 6.50614ZM24.5513 6.50838L24.0376 5.65042V5.65042L24.5513 6.50838ZM27.3996 4.80291L26.8859 3.94495L26.8859 3.94495L27.3996 4.80291ZM29.299 4.787L29.7983 3.92057V3.92057L29.299 4.787ZM34.4302 7.74389L34.9295 6.87745L34.4302 7.74389ZM35.3688 9.4L34.369 9.38318V9.38318L35.3688 9.4ZM35.3127 12.7353L34.3128 12.7185V12.7185L35.3127 12.7353ZM34.9491 15.1743L35.0724 15.3878L36.8042 14.3874L36.6809 14.1739L34.9491 15.1743ZM36.8763 17.1628L39.7847 18.7807L40.757 17.033L37.8486 15.415L36.8763 17.1628ZM40.2343 19.5434L40.2477 25.4531L42.2477 25.4485L42.2343 19.5388L40.2343 19.5434ZM39.7968 26.2204L36.8814 27.836L37.8509 29.5854L40.7663 27.9697L39.7968 26.2204ZM35.0707 29.6148L34.9491 29.8254L36.6809 30.8258L36.8026 30.6152L35.0707 29.6148ZM34.3128 32.2812L34.369 35.6204L36.3687 35.5868L36.3126 32.2476L34.3128 32.2812ZM33.9334 36.3919L28.8184 39.3606L29.8223 41.0904L34.9373 38.1217L33.9334 36.3919ZM27.9288 39.354L25.0674 37.6362L24.038 39.3509L26.8994 41.0687L27.9288 39.354ZM22.6225 36.9587H22.3756V38.9587H22.6225V36.9587ZM19.9354 37.6334L17.0871 39.3388L18.1146 41.0548L20.9629 39.3493L19.9354 37.6334ZM16.2008 39.3463L11.0696 36.3894L10.071 38.1223L15.2022 41.0791L16.2008 39.3463ZM10.6316 35.6165L10.6877 32.2919L8.68799 32.2581L8.63186 35.5828L10.6316 35.6165ZM10.0608 29.852L9.93046 29.6243L8.19469 30.6179L8.32505 30.8456L10.0608 29.852ZM8.11721 27.8331L5.21579 26.219L4.2435 27.9667L7.14492 29.5808L8.11721 27.8331ZM4.76617 25.4563L4.75275 19.5466L2.75275 19.5512L2.76618 25.4609L4.76617 25.4563ZM5.20362 18.7793L8.11903 17.1637L7.1496 15.4143L4.23419 17.03L5.20362 18.7793ZM9.92973 15.3849L10.0514 15.1743L8.31956 14.1739L8.1979 14.3845L9.92973 15.3849ZM10.6876 12.7185L10.6314 9.37927L8.63173 9.41291L8.68791 12.7521L10.6876 12.7185ZM11.0671 8.60777L16.1821 5.6391L15.1781 3.90933L10.0632 6.878L11.0671 8.60777ZM17.0717 5.64568L19.933 7.3635L20.9625 5.64878L18.1011 3.93096L17.0717 5.64568ZM22.3779 8.04104H22.6249V6.04104H22.3779V8.04104ZM25.0651 7.36633L27.9133 5.66086L26.8859 3.94495L24.0376 5.65042L25.0651 7.36633ZM28.7997 5.65344L33.931 8.61033L34.9295 6.87745L29.7983 3.92057L28.7997 5.65344ZM34.369 9.38318L34.3128 12.7185L36.3126 12.7521L36.3687 9.41682L34.369 9.38318ZM33.931 8.61033C34.2066 8.76916 34.3743 9.06509 34.369 9.38318L36.3687 9.41683C36.3863 8.37169 35.8352 7.39935 34.9295 6.87745L33.931 8.61033ZM27.9133 5.66086C28.1856 5.49784 28.5248 5.495 28.7997 5.65344L29.7983 3.92057C28.8949 3.39998 27.7804 3.40931 26.8859 3.94495L27.9133 5.66086ZM22.6249 8.04104C23.4843 8.04104 24.3277 7.80785 25.0651 7.36633L24.0376 5.65042C23.6107 5.90604 23.1225 6.04104 22.6249 6.04104V8.04104ZM19.933 7.3635C20.6715 7.80684 21.5166 8.04104 22.3779 8.04104V6.04104C21.8793 6.04104 21.39 5.90545 20.9625 5.64878L19.933 7.3635ZM16.1821 5.6391C16.4577 5.47914 16.7985 5.48166 17.0717 5.64568L18.1011 3.93096C17.2034 3.39203 16.0837 3.38375 15.1781 3.90933L16.1821 5.6391ZM10.6314 9.37927C10.6261 9.06215 10.7928 8.76698 11.0671 8.60777L10.0632 6.878C9.16187 7.4011 8.6142 8.37096 8.63173 9.41291L10.6314 9.37927ZM10.0514 15.1743C10.4822 14.4285 10.7021 13.5796 10.6876 12.7185L8.68791 12.7521C8.6963 13.2507 8.56898 13.7421 8.31956 14.1739L10.0514 15.1743ZM8.11903 17.1637C8.87278 16.746 9.49869 16.1311 9.92973 15.3849L8.1979 14.3845C7.94835 14.8165 7.58598 15.1725 7.1496 15.4143L8.11903 17.1637ZM4.75275 19.5466C4.75202 19.2278 4.92476 18.9339 5.20362 18.7793L4.23419 17.03C3.31794 17.5377 2.75037 18.5037 2.75275 19.5512L4.75275 19.5466ZM5.2158 26.219C4.93888 26.0649 4.76689 25.7732 4.76617 25.4563L2.76618 25.4609C2.76854 26.502 3.33364 27.4606 4.2435 27.9667L5.2158 26.219ZM9.93046 29.6243C9.50052 28.8732 8.87353 28.2538 8.11721 27.8331L7.14492 29.5808C7.58279 29.8244 7.94578 30.183 8.19469 30.6179L9.93046 29.6243ZM10.6877 32.2919C10.7021 31.437 10.4856 30.5941 10.0608 29.852L8.32505 30.8456C8.57095 31.2752 8.69634 31.7632 8.68799 32.2581L10.6877 32.2919ZM11.0696 36.3894C10.7939 36.2306 10.6262 35.9346 10.6316 35.6165L8.63186 35.5828C8.61421 36.628 9.16528 37.6004 10.071 38.1223L11.0696 36.3894ZM17.0871 39.3388C16.8149 39.5019 16.4757 39.5047 16.2008 39.3463L15.2022 41.0791C16.1056 41.5997 17.22 41.5904 18.1146 41.0548L17.0871 39.3388ZM22.3756 36.9587C21.5161 36.9587 20.6728 37.1918 19.9354 37.6334L20.9629 39.3493C21.3898 39.0937 21.878 38.9587 22.3756 38.9587V36.9587ZM25.0674 37.6362C24.329 37.1929 23.4839 36.9587 22.6225 36.9587V38.9587C23.1212 38.9587 23.6105 39.0943 24.038 39.3509L25.0674 37.6362ZM28.8184 39.3606C28.5428 39.5206 28.202 39.518 27.9288 39.354L26.8994 41.0687C27.7971 41.6077 28.9168 41.616 29.8223 41.0904L28.8184 39.3606ZM34.369 35.6204C34.3744 35.9376 34.2077 36.2327 33.9334 36.3919L34.9373 38.1217C35.8386 37.5986 36.3863 36.6287 36.3687 35.5868L34.369 35.6204ZM34.9491 29.8254C34.5183 30.5712 34.2984 31.4201 34.3128 32.2812L36.3126 32.2476C36.3042 31.749 36.4315 31.2576 36.6809 30.8258L34.9491 29.8254ZM36.8814 27.836C36.1277 28.2537 35.5018 28.8686 35.0707 29.6148L36.8026 30.6152C37.0521 30.1832 37.4145 29.8272 37.8509 29.5854L36.8814 27.836ZM40.2477 25.4531C40.2484 25.7719 40.0757 26.0659 39.7969 26.2204L40.7663 27.9697C41.6825 27.462 42.2501 26.4961 42.2477 25.4485L40.2477 25.4531ZM39.7847 18.7807C40.0616 18.9348 40.2336 19.2265 40.2343 19.5434L42.2343 19.5388C42.2319 18.4977 41.6668 17.5391 40.757 17.033L39.7847 18.7807ZM35.0724 15.3878C35.5021 16.1317 36.1255 16.7451 36.8763 17.1628L37.8486 15.415C37.4139 15.1732 37.053 14.8181 36.8042 14.3874L35.0724 15.3878ZM36.6809 14.1739C36.4315 13.7421 36.3042 13.2507 36.3126 12.7521L34.3128 12.7185C34.2984 13.5796 34.5183 14.4285 34.9491 15.1743L36.6809 14.1739Z" fill="#00FFE0"/>
</svg>
