<svg width="42" height="42" viewBox="0 0 42 42" fill="none" xmlns="http://www.w3.org/2000/svg">
<path fill-rule="evenodd" clip-rule="evenodd" d="M35 15.19L37.2925 15.9425C38.0053 16.1832 38.4844 16.8526 38.4825 17.605V24.3075C38.5211 25.0965 38.0263 25.8135 37.275 26.0575L35 26.81L36.2775 28.9275C36.6225 29.6011 36.4954 30.4201 35.9625 30.9575L31.15 35.77C30.6126 36.3029 29.7936 36.43 29.12 36.085L26.985 35L26.2325 37.275C25.9885 38.0263 25.2715 38.5211 24.4825 38.4825H17.6925C16.9035 38.5211 16.1864 38.0263 15.9425 37.275L15.19 35L13.055 36.1025C12.3814 36.4475 11.5624 36.3204 11.025 35.7875L6.22999 31.15C5.69709 30.6126 5.57 29.7936 5.91499 29.12L6.99999 26.985L4.72499 26.2325C3.97365 25.9885 3.47888 25.2715 3.51749 24.4825V17.6925C3.47888 16.9035 3.97365 16.1864 4.72499 15.9425L6.99999 15.19L5.89749 13.055C5.5525 12.3814 5.67959 11.5624 6.21249 11.025L11.025 6.21249C11.5624 5.67959 12.3814 5.5525 13.055 5.89749L15.19 6.99999L15.855 4.72499C16.0989 3.97365 16.816 3.47888 17.605 3.51749H24.3075C25.0965 3.47888 25.8135 3.97365 26.0575 4.72499L26.81 6.99999L28.945 5.89749C29.6186 5.5525 30.4376 5.67959 30.975 6.21249L35.77 11.025C36.3029 11.5624 36.43 12.3814 36.085 13.055L35 15.19ZM12.25 21C12.25 25.8325 16.1675 29.75 21 29.75C25.8325 29.75 29.75 25.8325 29.75 21C29.75 16.1675 25.8325 12.25 21 12.25C16.1675 12.25 12.25 16.1675 12.25 21Z" fill="white"/>
<circle cx="21" cy="21" r="5.25" fill="white"/>
</svg>
